<svg width="24" height="24" viewBox="0 0 24 24" fill="none" xmlns="http://www.w3.org/2000/svg">
<path d="M12 6.88889C10.9891 6.88889 10.0009 7.18865 9.16042 7.75027C8.3199 8.31188 7.6648 9.11013 7.27795 10.0441C6.8911 10.978 6.78988 12.0057 6.9871 12.9971C7.18431 13.9886 7.6711 14.8993 8.3859 15.6141C9.1007 16.3289 10.0114 16.8157 11.0029 17.0129C11.9943 17.2101 13.022 17.1089 13.9559 16.7221C14.8899 16.3352 15.6881 15.6801 16.2497 14.8396C16.8114 13.9991 17.1111 13.0109 17.1111 12C17.1111 10.6444 16.5726 9.34442 15.6141 8.3859C14.6556 7.42738 13.3556 6.88889 12 6.88889V6.88889ZM12 14.4444C11.5165 14.4444 11.0439 14.3011 10.6419 14.0325C10.24 13.7639 9.92664 13.3821 9.74163 12.9354C9.55661 12.4888 9.50821 11.9973 9.60252 11.5231C9.69684 11.0489 9.92965 10.6134 10.2715 10.2715C10.6134 9.92965 11.0489 9.69684 11.5231 9.60252C11.9973 9.50821 12.4888 9.55661 12.9354 9.74163C13.3821 9.92664 13.7639 10.24 14.0325 10.6419C14.3011 11.0439 14.4444 11.5165 14.4444 12C14.4415 12.6474 14.183 13.2675 13.7253 13.7253C13.2675 14.183 12.6474 14.4415 12 14.4444ZM17.3333 0H6.66667C4.89856 0 3.20286 0.702379 1.95262 1.95262C0.702379 3.20286 0 4.89856 0 6.66667V17.3333C0 19.1014 0.702379 20.7971 1.95262 22.0474C3.20286 23.2976 4.89856 24 6.66667 24H17.3333C19.1014 24 20.7971 23.2976 22.0474 22.0474C23.2976 20.7971 24 19.1014 24 17.3333V6.66667C24 4.89856 23.2976 3.20286 22.0474 1.95262C20.7971 0.702379 19.1014 0 17.3333 0V0ZM21.3333 17.3333C21.3333 18.3942 20.9119 19.4116 20.1618 20.1618C19.4116 20.9119 18.3942 21.3333 17.3333 21.3333H6.66667C5.6058 21.3333 4.58838 20.9119 3.83824 20.1618C3.08809 19.4116 2.66667 18.3942 2.66667 17.3333V6.66667C2.66667 5.6058 3.08809 4.58838 3.83824 3.83824C4.58838 3.08809 5.6058 2.66667 6.66667 2.66667H17.3333C18.3942 2.66667 19.4116 3.08809 20.1618 3.83824C20.9119 4.58838 21.3333 5.6058 21.3333 6.66667V17.3333ZM19.5556 6.22222C19.5556 6.57383 19.4513 6.91755 19.2559 7.2099C19.0606 7.50226 18.783 7.73012 18.4581 7.86467C18.1333 7.99923 17.7758 8.03444 17.431 7.96584C17.0861 7.89724 16.7693 7.72793 16.5207 7.4793C16.2721 7.23067 16.1028 6.9139 16.0342 6.56905C15.9656 6.22419 16.0008 5.86674 16.1353 5.5419C16.2699 5.21705 16.4977 4.9394 16.7901 4.74405C17.0825 4.54871 17.4262 4.44444 17.7778 4.44444C18.2493 4.44444 18.7015 4.63175 19.0349 4.96514C19.3683 5.29854 19.5556 5.75073 19.5556 6.22222Z" fill="white"/>
</svg>
