<svg xmlns="http://www.w3.org/2000/svg" viewBox="0 0 55.69 51.57"><defs><style>.cls-1,.cls-2,.cls-3{fill:#1a1e23;}.cls-2{fill-rule:evenodd;}.cls-3{font-size:21px;font-family:Pacifico-Regular, Pacifico;}.cls-4{font-size:12.3px;fill:#161a1c;font-family:Raleway-Regular, Raleway;}</style></defs><g id="Layer_2" data-name="Layer 2"><g id="Layer_1-2" data-name="Layer 1"><rect class="cls-1" x="3.96" y="11.01" width="1.41" height="17.96"/><path class="cls-2" d="M2.73,0H6.6A2.73,2.73,0,0,1,9.33,2.73V10.9a.9.9,0,0,1-.9.9H1a1,1,0,0,1-1-1V2.73A2.74,2.74,0,0,1,2.73,0ZM6.21,1.5a.38.38,0,0,0-.38.37v8.46a.38.38,0,0,0,.38.37h0a.38.38,0,0,0,.37-.37V1.87a.38.38,0,0,0-.37-.37Zm-3,0a.38.38,0,0,0-.37.37v8.46a.38.38,0,0,0,.37.37h0a.38.38,0,0,0,.38-.37V1.87a.38.38,0,0,0-.38-.37Zm1.5,0a.37.37,0,0,0-.37.37v8.46a.37.37,0,0,0,.37.37h0a.37.37,0,0,0,.37-.37V1.87a.37.37,0,0,0-.37-.37Zm3,0a.38.38,0,0,0-.38.37v8.46a.38.38,0,0,0,.38.37h0a.38.38,0,0,0,.37-.37V1.87a.38.38,0,0,0-.37-.37Zm-6,0a.38.38,0,0,0-.37.37v8.46a.38.38,0,0,0,.37.37h0a.38.38,0,0,0,.38-.37V1.87a.38.38,0,0,0-.38-.37Z"/><path class="cls-2" d="M4.67,20.68h0A1.36,1.36,0,0,1,6,22v14.3A1.36,1.36,0,0,1,4.67,37.7h0A1.37,1.37,0,0,1,3.3,36.34V22a1.37,1.37,0,0,1,1.37-1.36Zm0,14.38a.58.58,0,1,0,.57.58A.58.58,0,0,0,4.67,35.06Z"/><text class="cls-3" transform="translate(7.33 37.28)">Nsta</text><text class="cls-4" transform="translate(2.09 48.83)">KUHINJA</text></g></g></svg>