<svg xmlns="http://www.w3.org/2000/svg" viewBox="0 0 53.44 57.1"><defs><style>.cls-1{fill:#303749;}.cls-2,.cls-3{fill:#ffe877;}.cls-3{fill-rule:evenodd;}.cls-4{font-size:10.08px;fill:#fff;font-family:Raleway-Regular, Raleway;}</style></defs><g id="Layer_2" data-name="Layer 2"><g id="Layer_1-2" data-name="Layer 1"><rect class="cls-1" width="53.44" height="57.1" rx="12.57"/><rect class="cls-2" x="7.15" y="16.44" width="1.15" height="14.72"/><path class="cls-3" d="M6.13,7.41H9.31a2.25,2.25,0,0,1,2.24,2.24v6.7a.74.74,0,0,1-.74.73H4.69a.79.79,0,0,1-.79-.79V9.65A2.24,2.24,0,0,1,6.13,7.41ZM9,8.64A.31.31,0,0,0,8.68,9v6.93a.31.31,0,0,0,.31.3H9a.31.31,0,0,0,.3-.3V9A.31.31,0,0,0,9,8.64Zm-2.46,0A.31.31,0,0,0,6.22,9v6.93a.31.31,0,0,0,.31.3h0a.31.31,0,0,0,.31-.3V9a.31.31,0,0,0-.31-.31Zm1.23,0A.31.31,0,0,0,7.45,9v6.93a.31.31,0,0,0,.31.3h0a.3.3,0,0,0,.3-.3V9a.3.3,0,0,0-.3-.31Zm2.45,0a.3.3,0,0,0-.3.31v6.93a.3.3,0,0,0,.3.3h0a.31.31,0,0,0,.31-.3V9a.31.31,0,0,0-.31-.31Zm-4.91,0A.3.3,0,0,0,5,9v6.93a.3.3,0,0,0,.3.3h0a.31.31,0,0,0,.31-.3V9a.31.31,0,0,0-.31-.31Z"/><path class="cls-3" d="M7.72,24.36h0a1.12,1.12,0,0,1,1.12,1.12V37.2a1.12,1.12,0,0,1-1.12,1.12h0A1.13,1.13,0,0,1,6.6,37.2V25.48a1.12,1.12,0,0,1,1.12-1.12Zm0,11.79a.47.47,0,1,0,.47.47A.47.47,0,0,0,7.72,36.15Z"/><path class="cls-2" d="M13,37.77a1.6,1.6,0,0,1-.27-1.08,9.64,9.64,0,0,1,.1-1.29c.07-.5.19-1.26.36-2.29,0-.13.12-.69.28-1.67s.3-2,.43-3.1a19.09,19.09,0,0,0,.17-2.06q0-.78-.57-.78a2.08,2.08,0,0,0-1.07.46A6.57,6.57,0,0,0,11,27.42a.69.69,0,0,1-.53.32.53.53,0,0,1-.42-.23A.78.78,0,0,1,9.88,27a1.46,1.46,0,0,1,.11-.55,2.74,2.74,0,0,1,.38-.65A6.53,6.53,0,0,1,12.24,24a4.1,4.1,0,0,1,2.17-.63,1.72,1.72,0,0,1,1.42.59,2.61,2.61,0,0,1,.48,1.7A22.45,22.45,0,0,1,16,28.55a9.59,9.59,0,0,1,2.19-3.86,4.26,4.26,0,0,1,3.11-1.32,2.73,2.73,0,0,1,2.13.8,3.12,3.12,0,0,1,.71,2.14A9.35,9.35,0,0,1,24,28.16L22.9,33.08a7.29,7.29,0,0,0-.17,1.48,1.55,1.55,0,0,0,.33,1.08A1.21,1.21,0,0,0,24,36a1.93,1.93,0,0,0,1.11-.38,7.36,7.36,0,0,0,1.28-1.26.62.62,0,0,1,.47-.24.4.4,0,0,1,.35.21,1,1,0,0,1,.13.56A1.61,1.61,0,0,1,27,36a6.46,6.46,0,0,1-1.77,1.58,3.61,3.61,0,0,1-1.84.5,3,3,0,0,1-2.29-.87,3.22,3.22,0,0,1-.83-2.33,8,8,0,0,1,.1-1.24c.06-.44.17-1,.32-1.7l.68-3.15c0-.11.07-.29.12-.55s.11-.52.14-.75a4.2,4.2,0,0,0,.05-.7,1.21,1.21,0,0,0-.31-.88,1.16,1.16,0,0,0-.87-.32,2.89,2.89,0,0,0-2.07,1.1,10.26,10.26,0,0,0-1.91,3.55,30.47,30.47,0,0,0-1.38,6.28,3.2,3.2,0,0,1-.35,1.22,1,1,0,0,1-.9.34A1.25,1.25,0,0,1,13,37.77Z"/><path class="cls-2" d="M27.78,38a1.21,1.21,0,0,1-.47-.93,1,1,0,0,1,.32-.77,1.31,1.31,0,0,1,1-.33,3.46,3.46,0,0,1,.52,0l.46.06a2.16,2.16,0,0,0-.2-.84,3.82,3.82,0,0,0-.46-.77c-.18-.24-.35-.46-.51-.64a11,11,0,0,1-2.21,3,.93.93,0,0,1-.65.31.59.59,0,0,1-.45-.2.75.75,0,0,1-.17-.49,1,1,0,0,1,.24-.64l.22-.27a20.93,20.93,0,0,0,1.43-1.93,14.39,14.39,0,0,0,.69-1.34c.27-.55.52-1.13.78-1.73a1.32,1.32,0,0,1,1.36-.75,2,2,0,0,1,.67.08.3.3,0,0,1,.19.28,1.44,1.44,0,0,1-.07.32,2.88,2.88,0,0,1-.19.45,2.46,2.46,0,0,0-.31,1.05,1.14,1.14,0,0,0,.18.57,6.41,6.41,0,0,0,.56.78,10.24,10.24,0,0,1,.83,1.23,2.24,2.24,0,0,1,.29,1.11,3.5,3.5,0,0,1,0,.48,5.41,5.41,0,0,0,2-1.74.62.62,0,0,1,.47-.24.38.38,0,0,1,.35.21,1,1,0,0,1,.13.56A1.65,1.65,0,0,1,34.36,36a5.29,5.29,0,0,1-1.64,1.46,4.93,4.93,0,0,1-1.94.42,2.43,2.43,0,0,1-1.63.58A2,2,0,0,1,27.78,38Z"/><path class="cls-2" d="M41.33,34.34a1.08,1.08,0,0,1,.13.56A1.57,1.57,0,0,1,41.13,36a7.34,7.34,0,0,1-1.62,1.5,3.56,3.56,0,0,1-2,.58c-2.35,0-3.52-1.64-3.52-4.94q0-.75.06-1.53h-.68a.93.93,0,0,1-.69-.19.84.84,0,0,1-.18-.6c0-.64.26-1,.77-1h1a17,17,0,0,1,.9-3.46,7.7,7.7,0,0,1,1.45-2.5,2.49,2.49,0,0,1,1.84-.93,1.27,1.27,0,0,1,1.13.64,2.82,2.82,0,0,1,.42,1.6,6,6,0,0,1-2.24,4.65h1.93a.54.54,0,0,1,.39.12.63.63,0,0,1,.12.44c0,.8-.65,1.19-1.94,1.19h-2.1c0,.58,0,1,0,1.34a5.38,5.38,0,0,0,.42,2.52,1.44,1.44,0,0,0,1.34.72,2.06,2.06,0,0,0,1.31-.45,11.13,11.13,0,0,0,1.34-1.34.6.6,0,0,1,.46-.24A.41.41,0,0,1,41.33,34.34Zm-3.95-9.1a9.47,9.47,0,0,0-.6,1.79,22.27,22.27,0,0,0-.47,2.54,6,6,0,0,0,1.52-2,4.8,4.8,0,0,0,.51-2c0-.68-.13-1-.38-1S37.6,24.81,37.38,25.24Z"/><path class="cls-2" d="M40.47,37.28a3.12,3.12,0,0,1-.63-2,5.65,5.65,0,0,1,.63-2.61,5.47,5.47,0,0,1,1.7-2,3.82,3.82,0,0,1,2.25-.75.63.63,0,0,1,.5.15,1.22,1.22,0,0,1,.22.52,4.56,4.56,0,0,1,.76-.07c.56,0,.84.2.84.61a13.55,13.55,0,0,1-.26,1.72,17,17,0,0,0-.39,2.75.64.64,0,0,0,.13.42.4.4,0,0,0,.33.15,1.3,1.3,0,0,0,.79-.42,15,15,0,0,0,1.26-1.37.6.6,0,0,1,.46-.24.41.41,0,0,1,.36.21,1.08,1.08,0,0,1,.13.56A1.57,1.57,0,0,1,49.22,36a8.37,8.37,0,0,1-1.5,1.48,2.57,2.57,0,0,1-1.53.6,1.57,1.57,0,0,1-1-.38,2.33,2.33,0,0,1-.72-1.06,2.61,2.61,0,0,1-2.25,1.44A2.1,2.1,0,0,1,40.47,37.28Zm3.05-1.41a2.89,2.89,0,0,0,.5-1.19l.64-3.17a2.1,2.1,0,0,0-1.34.54,3.77,3.77,0,0,0-1,1.39A4.67,4.67,0,0,0,42,35.27a1.24,1.24,0,0,0,.21.79.76.76,0,0,0,.6.26A.94.94,0,0,0,43.52,35.87Z"/><text class="cls-4" transform="translate(5.61 47.44)">KUHINJA</text></g></g></svg>